<?xml version="1.0" standalone="no"?>
<!DOCTYPE svg PUBLIC "-//W3C//DTD SVG 20010904//EN"
 "http://www.w3.org/TR/2001/REC-SVG-20010904/DTD/svg10.dtd">
<svg version="1.0" xmlns="http://www.w3.org/2000/svg"
 width="500.000000pt" height="500.000000pt" viewBox="0 0 500.000000 500.000000"
 preserveAspectRatio="xMidYMid meet">

<g transform="translate(0.000000,500.000000) scale(0.100000,-0.100000)"
fill="#000000" stroke="none">
<path d="M180 3670 l0 -1080 1075 0 1075 0 0 1080 0 1080 -1075 0 -1075 0 0
-1080z"/>
<path d="M2618 3802 c-16 -9 -35 -32 -44 -50 -33 -70 10 -145 98 -171 59 -17
88 -38 88 -62 0 -24 -35 -39 -70 -29 -17 4 -28 16 -35 39 -9 31 -11 32 -55 29
-44 -3 -45 -4 -48 -40 -2 -23 1 -38 8 -38 6 0 26 -15 45 -34 86 -86 240 -39
252 76 7 69 -20 101 -108 130 -75 25 -97 43 -86 72 14 36 107 9 107 -32 0 -8
17 -12 45 -12 l45 0 0 40 c0 28 -4 40 -15 40 -7 0 -18 6 -22 13 -29 48 -149
65 -205 29z"/>
<path d="M2890 3785 c0 -28 4 -35 20 -35 19 0 20 -7 20 -135 0 -128 -1 -135
-20 -135 -16 0 -20 -7 -20 -35 l0 -35 75 0 75 0 0 35 c0 24 -5 35 -15 35 -9 0
-15 9 -15 25 0 45 35 30 85 -35 43 -55 49 -60 86 -60 39 0 39 0 39 40 0 35 -3
40 -23 40 -13 0 -36 13 -51 29 l-28 30 21 30 c17 23 30 31 52 31 29 0 30 2 27
38 l-3 37 -67 3 -68 3 0 -39 c0 -43 -14 -62 -47 -62 -23 0 -23 2 -23 115 l0
115 -60 0 -60 0 0 -35z"/>
<path d="M3322 3808 c-7 -7 -12 -21 -12 -33 0 -12 5 -26 12 -33 7 -7 21 -12
33 -12 12 0 26 5 33 12 7 7 12 21 12 33 0 12 -5 26 -12 33 -7 7 -21 12 -33 12
-12 0 -26 -5 -33 -12z"/>
<path d="M3470 3785 c0 -28 4 -35 20 -35 19 0 20 -7 20 -135 0 -128 -1 -135
-20 -135 -16 0 -20 -7 -20 -35 l0 -35 85 0 85 0 0 35 c0 31 -3 35 -25 35 l-25
0 0 170 0 170 -60 0 -60 0 0 -35z"/>
<path d="M3670 3785 c0 -28 4 -35 20 -35 19 0 20 -7 20 -135 0 -128 -1 -135
-20 -135 -16 0 -20 -7 -20 -35 l0 -35 85 0 85 0 0 34 c0 28 -4 35 -22 38 -23
3 -23 5 -26 171 l-2 167 -60 0 -60 0 0 -35z"/>
<path d="M3277 3684 c-4 -4 -7 -22 -7 -41 0 -26 4 -33 20 -33 18 0 20 -7 20
-65 0 -58 -2 -65 -20 -65 -16 0 -20 -7 -20 -35 l0 -35 80 0 80 0 0 35 c0 24
-5 35 -15 35 -11 0 -15 20 -17 103 l-3 102 -55 3 c-31 2 -59 0 -63 -4z"/>
<path d="M3052 3198 c-7 -7 -12 -21 -12 -33 0 -12 5 -26 12 -33 7 -7 21 -12
33 -12 12 0 26 5 33 12 7 7 12 21 12 33 0 12 -5 26 -12 33 -7 7 -21 12 -33 12
-12 0 -26 -5 -33 -12z"/>
<path d="M2570 3165 c0 -28 4 -35 20 -35 19 0 20 -7 20 -130 0 -123 -1 -130
-20 -130 -16 0 -20 -7 -20 -35 l0 -35 90 0 90 0 0 35 c0 31 -3 35 -25 35 -24
0 -25 2 -25 65 0 36 3 65 7 65 4 0 33 -26 65 -57 53 -52 58 -61 58 -100 l0
-43 70 0 70 0 0 40 c0 32 -4 40 -18 40 -10 0 -47 29 -82 65 l-64 65 49 45 c28
24 65 51 83 60 27 13 32 21 32 50 l0 35 -70 0 -70 0 0 -39 c0 -34 -6 -43 -59
-90 -33 -28 -62 -51 -65 -51 -3 0 -6 25 -6 55 0 52 1 55 25 55 22 0 25 4 25
35 l0 35 -90 0 -90 0 0 -35z"/>
<path d="M3268 3162 c-34 -13 -38 -19 -38 -48 0 -27 -4 -34 -20 -34 -16 0 -20
-7 -20 -35 0 -23 5 -35 14 -35 10 0 15 -22 18 -85 3 -62 9 -90 22 -104 39 -43
126 -34 126 14 0 21 -5 25 -30 25 l-30 0 0 75 c0 73 1 75 25 75 22 0 25 4 25
35 0 30 -3 35 -24 35 -23 0 -25 5 -28 48 l-3 48 -37 -14z"/>
<path d="M3470 3079 c-41 -17 -60 -40 -60 -74 0 -49 27 -73 100 -93 43 -11 65
-22 65 -32 0 -21 -68 -26 -85 -6 -7 10 -28 16 -51 16 -38 0 -39 -1 -39 -35 0
-32 2 -35 29 -35 17 0 32 -4 35 -9 14 -21 84 -23 129 -3 106 47 84 138 -38
165 -39 9 -60 19 -60 28 0 21 63 24 85 4 11 -10 30 -15 47 -13 25 3 28 7 28
38 0 32 -2 35 -40 43 -77 15 -120 17 -145 6z"/>
<path d="M3000 3040 c0 -33 3 -40 20 -40 18 0 20 -7 20 -65 0 -58 -2 -65 -20
-65 -16 0 -20 -7 -20 -35 l0 -35 80 0 80 0 0 35 c0 28 -4 35 -20 35 -19 0 -20
7 -20 105 l0 105 -60 0 -60 0 0 -40z"/>
<path d="M170 1320 l0 -1080 1080 0 1080 0 0 1080 0 1080 -1080 0 -1080 0 0
-1080z"/>
<path d="M2540 1320 l0 -1080 1080 0 1080 0 0 1080 0 1080 -1080 0 -1080 0 0
-1080z"/>
</g>
</svg>
